<svg xmlns="http://www.w3.org/2000/svg" viewBox="0 0 1024 1024"><defs><style>.cls-1,.cls-2{fill:#0050ff;}.cls-1{opacity:0;}</style></defs><title>PW-Norm+Type</title><g id="_AB_2_Project_Wingman" data-name="[AB 2] Project Wingman"><rect id="Boundaries" class="cls-1" width="1024" height="1024"/><g id="Wingman_Typography" data-name="Wingman Typography"><path class="cls-2" d="M313.58,800.08,288.22,870h-19.5L253,826.6,236.73,870h-19.5L192,800.08h19.11l16.52,47.33,17.16-47.33H262l16.64,47.33,17-47.33Z"/><path class="cls-2" d="M324.11,787.07a11,11,0,0,1,0-16.12,12.89,12.89,0,0,1,9.1-3.25,13.18,13.18,0,0,1,9.1,3.12,10,10,0,0,1,3.51,7.8,11,11,0,0,1-3.51,8.39,12.71,12.71,0,0,1-9.1,3.32A12.85,12.85,0,0,1,324.11,787.07Zm-1,13h20.28V870H323.07Z"/><path class="cls-2" d="M425.73,806.84q8,7.8,8,23.14v40H413.44V833.11q0-8.33-3.64-12.42t-10.53-4.1q-7.68,0-12.23,4.75t-4.55,14.11V870H362.21V800.08h19.37v8.19a27,27,0,0,1,10-6.83,35,35,0,0,1,13.14-2.4Q417.72,799,425.73,806.84Z"/><path class="cls-2" d="M525,800.08v58.25q0,19.24-10,28.61t-29.26,9.36a73.45,73.45,0,0,1-19.24-2.47,42,42,0,0,1-15.08-7.15l8.06-14.57a33,33,0,0,0,11.18,5.79,44.54,44.54,0,0,0,13.52,2.15q10.53,0,15.54-4.75t5-14.37v-3q-7.94,8.71-22.11,8.71A37.25,37.25,0,0,1,465,862.43a32.25,32.25,0,0,1-12.67-11.9,35.75,35.75,0,0,1,0-35.37A32.25,32.25,0,0,1,465,803.26,37.25,37.25,0,0,1,482.61,799q15.22,0,23.15,10v-9Zm-25.16,45.18a17.56,17.56,0,0,0,0-24.83q-5.13-4.75-13.2-4.75t-13.26,4.75a17.42,17.42,0,0,0,0,24.83q5.21,4.75,13.26,4.75T499.84,845.26Z"/><path class="cls-2" d="M654.32,806.77q7.73,7.74,7.73,23.21v40H641.77V833.11q0-8.33-3.45-12.42c-2.29-2.73-5.57-4.1-9.81-4.1q-7.15,0-11.32,4.62T613,834.93V870H592.75V833.11q0-16.51-13.27-16.52-7,0-11.18,4.62t-4.16,13.72V870H543.86V800.08h19.37v8.06a25.58,25.58,0,0,1,9.56-6.76A32.17,32.17,0,0,1,585.21,799,30.08,30.08,0,0,1,598.6,802a23.7,23.7,0,0,1,9.62,8.52A28.65,28.65,0,0,1,619.08,802a34.18,34.18,0,0,1,14.37-3Q646.58,799,654.32,806.77Z"/><path class="cls-2" d="M733.44,806.77q8.71,7.74,8.71,23.34V870h-19v-8.71q-5.73,9.75-21.33,9.75a33.14,33.14,0,0,1-14-2.73,20.82,20.82,0,0,1-9-7.54,19.62,19.62,0,0,1-3.12-10.92q0-9.75,7.34-15.34t22.69-5.6h16.13q0-6.63-4-10.2t-12.1-3.58a35.23,35.23,0,0,0-11,1.76,29.08,29.08,0,0,0-9.17,4.74l-7.28-14.17A43.71,43.71,0,0,1,692,801.25,61.28,61.28,0,0,1,708.47,799Q724.73,799,733.44,806.77ZM716.15,855a13.18,13.18,0,0,0,5.72-7.08v-7.15H708q-12.48,0-12.48,8.19a7.3,7.3,0,0,0,3.06,6.18c2,1.51,4.83,2.27,8.38,2.27A17.64,17.64,0,0,0,716.15,855Z"/><path class="cls-2" d="M824,806.84q8,7.8,8,23.14v40H811.72V833.11q0-8.33-3.65-12.42t-10.53-4.1q-7.66,0-12.22,4.75t-4.55,14.11V870H760.48V800.08h19.38v8.19a26.86,26.86,0,0,1,10-6.83A34.94,34.94,0,0,1,803,799Q816,799,824,806.84Z"/><rect id="Type_Boundaries" data-name="Type Boundaries" class="cls-1" x="192" y="768" width="640" height="128"/></g><g id="Logo"><path id="Chat_Thread_Boundary" data-name="Chat Thread Boundary" class="cls-2" d="M176,336V560A168,168,0,0,0,344,728H484V672H344A112,112,0,0,1,232,560V336A112,112,0,0,1,344,224H484V168H344A168,168,0,0,0,176,336Z"/><path id="Message_Stroke_3" data-name="Message Stroke 3" class="cls-2" d="M316,336a28,28,0,0,0,28,28H484V308H344A28,28,0,0,0,316,336Z"/><path id="Message_Stroke_2" data-name="Message Stroke 2" class="cls-2" d="M316,560a28,28,0,0,0,28,28H484V532H344A28,28,0,0,0,316,560Z"/><path id="Message_Stroke_1" data-name="Message Stroke 1" class="cls-2" d="M316,448a28,28,0,0,0,28,28H484V420H344A28,28,0,0,0,316,448Z"/><path id="Wing" class="cls-2" d="M848,196v-.09a28.31,28.31,0,0,0-.78-6.49c0-.12-.07-.24-.1-.36-.09-.35-.18-.69-.28-1-.05-.18-.11-.36-.17-.53s-.19-.58-.29-.86-.13-.39-.2-.57l-.37-.93-.15-.35h0l0-.06q-.39-.88-.84-1.74c0-.05,0-.11-.08-.17v0h0a.86.86,0,0,0-.1-.16,26.5,26.5,0,0,0-2.12-3.34l-.06-.08h0l0-.06a28.74,28.74,0,0,0-3-3.37h0a27.71,27.71,0,0,0-4.75-3.65,1.64,1.64,0,0,0-.22-.14h0l0,0-.2-.12c-.49-.28-1-.56-1.5-.82l-.06,0-.1-.06-.09,0c-.34-.17-.69-.33-1-.48h0l-.26-.12h0c-.34-.15-.68-.29-1-.42l-.19-.08h0l-.09,0h0l-.83-.29c-.61-.21-1.22-.4-1.84-.56l-.1,0h0l-.22,0A28.12,28.12,0,0,0,820,168H568a28,28,0,0,0,0,56H774.69l-45.5,91H645a21,21,0,0,0,0,42h63.19l-35,70H645a21,21,0,0,0,0,42h7.19L618.4,536.57v0L543,687.48a28,28,0,1,0,50.08,25l25.36-50.71L714.8,469l21-42,35-70,21-42L845,208.52c.32-.63.6-1.26.86-1.9a1.54,1.54,0,0,0,.08-.19h0a.36.36,0,0,0,0-.09h0a.56.56,0,0,0,0-.12A27.8,27.8,0,0,0,848,196Z"/></g><rect id="Boundaries-2" data-name="Boundaries" class="cls-1" x="64" width="896" height="896"/></g></svg>