<svg xmlns="http://www.w3.org/2000/svg" viewBox="0 0 768 256"><defs><style>.cls-1,.cls-2{fill:#0050ff;}.cls-2{opacity:0;}</style></defs><title>PW-NormalVertical</title><g id="_AB_3_Project_Wingman" data-name="[AB 3] Project Wingman"><g id="Wingman_Typography" data-name="Wingman Typography"><path class="cls-1" d="M196.11,83.07a11,11,0,0,1,0-16.12,12.89,12.89,0,0,1,9.1-3.25,13.18,13.18,0,0,1,9.1,3.12,10,10,0,0,1,3.51,7.8A11,11,0,0,1,214.31,83a12.71,12.71,0,0,1-9.1,3.32A12.85,12.85,0,0,1,196.11,83.07Zm-1,13h20.28v70H195.07Z"/><path class="cls-1" d="M297.73,102.84q8,7.8,8,23.14V166H285.44V129.11q0-8.33-3.64-12.42t-10.53-4.1q-7.68,0-12.23,4.75t-4.55,14.11V166H234.21V96.08h19.37v8.19a27,27,0,0,1,10-6.83A35,35,0,0,1,276.73,95Q289.72,95,297.73,102.84Z"/><path class="cls-1" d="M397,96.08v58.25q0,19.24-10,28.61t-29.26,9.36a73.45,73.45,0,0,1-19.24-2.47,42,42,0,0,1-15.08-7.15l8.06-14.57a33,33,0,0,0,11.18,5.79,44.54,44.54,0,0,0,13.52,2.15q10.53,0,15.54-4.75t5-14.37v-3q-7.94,8.72-22.11,8.71A37.25,37.25,0,0,1,337,158.43a32.25,32.25,0,0,1-12.67-11.9,33.26,33.26,0,0,1-4.68-17.68,33.29,33.29,0,0,1,4.68-17.69A32.25,32.25,0,0,1,337,99.26,37.25,37.25,0,0,1,354.61,95q15.22,0,23.15,10v-9Zm-25.16,45.18a17.56,17.56,0,0,0,0-24.83q-5.13-4.75-13.2-4.75t-13.26,4.75a17.42,17.42,0,0,0,0,24.83q5.21,4.76,13.26,4.75T371.84,141.26Z"/><path class="cls-1" d="M526.32,102.77q7.73,7.74,7.73,23.21V166H513.77V129.11q0-8.33-3.45-12.42c-2.29-2.73-5.57-4.1-9.81-4.1q-7.15,0-11.32,4.62T485,130.93V166H464.75V129.11q0-16.52-13.27-16.52-7,0-11.18,4.62t-4.16,13.72V166H415.86V96.08h19.37v8.06a25.58,25.58,0,0,1,9.56-6.76A32.17,32.17,0,0,1,457.21,95,30.08,30.08,0,0,1,470.6,98a23.7,23.7,0,0,1,9.62,8.52A28.65,28.65,0,0,1,491.08,98a34.18,34.18,0,0,1,14.37-3Q518.58,95,526.32,102.77Z"/><path class="cls-1" d="M605.44,102.77q8.71,7.74,8.71,23.34V166h-19v-8.71q-5.73,9.75-21.33,9.75a33.14,33.14,0,0,1-14-2.73,20.82,20.82,0,0,1-9-7.54,19.62,19.62,0,0,1-3.12-10.92q0-9.75,7.34-15.34t22.69-5.6h16.13q0-6.63-4-10.2t-12.1-3.58a35.23,35.23,0,0,0-11,1.76,29.08,29.08,0,0,0-9.17,4.74l-7.28-14.17A43.71,43.71,0,0,1,564,97.25,61.28,61.28,0,0,1,580.47,95Q596.73,95,605.44,102.77ZM588.15,151a13.18,13.18,0,0,0,5.72-7.08v-7.15H580q-12.48,0-12.48,8.19a7.3,7.3,0,0,0,3.06,6.18c2,1.51,4.83,2.27,8.38,2.27A17.64,17.64,0,0,0,588.15,151Z"/><path class="cls-1" d="M696,102.84q8,7.8,8,23.14V166H683.72V129.11q0-8.33-3.65-12.42t-10.53-4.1q-7.66,0-12.22,4.75t-4.55,14.11V166H632.48V96.08h19.38v8.19a26.86,26.86,0,0,1,10-6.83A34.94,34.94,0,0,1,675,95Q688,95,696,102.84Z"/><rect id="Type_Boundaries" data-name="Type Boundaries" class="cls-2" x="64" y="64" width="640" height="128"/><g id="Logo"><path id="Chat_Thread_Boundary" data-name="Chat Thread Boundary" class="cls-1" d="M64,101.33v40.54a30.4,30.4,0,0,0,30.4,30.4h25.33V162.13H94.4a20.26,20.26,0,0,1-20.27-20.26V101.33A20.26,20.26,0,0,1,94.4,81.07h25.33V70.93H94.4A30.4,30.4,0,0,0,64,101.33Z"/><path id="Message_Stroke_3" data-name="Message Stroke 3" class="cls-1" d="M89.33,101.33a5.07,5.07,0,0,0,5.07,5.07h25.33V96.27H94.4A5.06,5.06,0,0,0,89.33,101.33Z"/><path id="Message_Stroke_2" data-name="Message Stroke 2" class="cls-1" d="M89.33,141.87a5.07,5.07,0,0,0,5.07,5.06h25.33V136.8H94.4A5.07,5.07,0,0,0,89.33,141.87Z"/><path id="Message_Stroke_1" data-name="Message Stroke 1" class="cls-1" d="M89.33,121.6a5.07,5.07,0,0,0,5.07,5.07h25.33V116.53H94.4A5.07,5.07,0,0,0,89.33,121.6Z"/><path id="Wing" class="cls-1" d="M185.6,76h0a5.21,5.21,0,0,0-.14-1.18s0,0,0-.06a1.05,1.05,0,0,0-.05-.19l0-.1s0-.1-.05-.15,0-.07,0-.11a1.11,1.11,0,0,0-.07-.16s0-.05,0-.07h0l-.15-.31v0h0v0a6.17,6.17,0,0,0-.39-.6h0v0a4.37,4.37,0,0,0-.54-.6h0a4.82,4.82,0,0,0-.86-.67l0,0h0l0,0-.27-.15h-.05l-.18-.09h0l0,0h0l-.19-.07,0,0h0l-.15,0-.34-.1h0a4.72,4.72,0,0,0-1.23-.16H134.93a5.07,5.07,0,0,0,0,10.14h37.4L164.1,97.53H148.87a3.8,3.8,0,0,0,0,7.6H160.3L154,117.8h-5.1a3.8,3.8,0,0,0,0,7.6h1.3l-6.12,12.23h0l-13.65,27.3a5.06,5.06,0,0,0,2.27,6.8,4.94,4.94,0,0,0,2.26.54,5.08,5.08,0,0,0,4.54-2.8l4.58-9.18L161.5,125.4l3.8-7.6,6.33-12.67,3.8-7.6,9.64-19.26.15-.35,0,0h0v0h0v0A5,5,0,0,0,185.6,76Z"/></g></g></g></svg>