<svg xmlns="http://www.w3.org/2000/svg" viewBox="0 0 768 256"><defs><style>.cls-1,.cls-2{fill:#0050ff;}.cls-2{opacity:0;}</style></defs><title>PW-NormalVertical+Type</title><g id="_AB_2_Project_Wingman" data-name="[AB 2] Project Wingman"><g id="Wingman_Typography" data-name="Wingman Typography"><path class="cls-1" d="M249.58,96.08l-25.36,70h-19.5L189,122.6,172.73,166h-19.5L128,96.08h19.11l16.52,47.33,17.16-47.33H198l16.64,47.33,17-47.33Z"/><path class="cls-1" d="M260.11,83.07a11,11,0,0,1,0-16.12,12.89,12.89,0,0,1,9.1-3.25,13.18,13.18,0,0,1,9.1,3.12,10,10,0,0,1,3.51,7.8A11,11,0,0,1,278.31,83a12.71,12.71,0,0,1-9.1,3.32A12.85,12.85,0,0,1,260.11,83.07Zm-1,13h20.28v70H259.07Z"/><path class="cls-1" d="M361.73,102.84q8,7.8,8,23.14V166H349.44V129.11q0-8.33-3.64-12.42t-10.53-4.1q-7.68,0-12.23,4.75t-4.55,14.11V166H298.21V96.08h19.37v8.19a27,27,0,0,1,10-6.83A35,35,0,0,1,340.73,95Q353.72,95,361.73,102.84Z"/><path class="cls-1" d="M461,96.08v58.25q0,19.24-10,28.61t-29.26,9.36a73.45,73.45,0,0,1-19.24-2.47,42,42,0,0,1-15.08-7.15l8.06-14.57a33,33,0,0,0,11.18,5.79,44.54,44.54,0,0,0,13.52,2.15q10.53,0,15.54-4.75t5-14.37v-3q-7.94,8.72-22.11,8.71A37.25,37.25,0,0,1,401,158.43a32.25,32.25,0,0,1-12.67-11.9,33.26,33.26,0,0,1-4.68-17.68,33.29,33.29,0,0,1,4.68-17.69A32.25,32.25,0,0,1,401,99.26,37.25,37.25,0,0,1,418.61,95q15.22,0,23.15,10v-9Zm-25.16,45.18a17.56,17.56,0,0,0,0-24.83q-5.13-4.75-13.2-4.75t-13.26,4.75a17.42,17.42,0,0,0,0,24.83q5.21,4.76,13.26,4.75T435.84,141.26Z"/><path class="cls-1" d="M590.32,102.77q7.73,7.74,7.73,23.21V166H577.77V129.11q0-8.33-3.45-12.42c-2.29-2.73-5.57-4.1-9.81-4.1q-7.15,0-11.32,4.62T549,130.93V166H528.75V129.11q0-16.52-13.27-16.52-7,0-11.18,4.62t-4.16,13.72V166H479.86V96.08h19.37v8.06a25.58,25.58,0,0,1,9.56-6.76A32.17,32.17,0,0,1,521.21,95,30.08,30.08,0,0,1,534.6,98a23.7,23.7,0,0,1,9.62,8.52A28.65,28.65,0,0,1,555.08,98a34.18,34.18,0,0,1,14.37-3Q582.58,95,590.32,102.77Z"/><path class="cls-1" d="M669.44,102.77q8.71,7.74,8.71,23.34V166h-19v-8.71q-5.73,9.75-21.33,9.75a33.14,33.14,0,0,1-14-2.73,20.82,20.82,0,0,1-9-7.54,19.62,19.62,0,0,1-3.12-10.92q0-9.75,7.34-15.34t22.69-5.6h16.13q0-6.63-4-10.2t-12.1-3.58a35.23,35.23,0,0,0-11,1.76,29.08,29.08,0,0,0-9.17,4.74l-7.28-14.17A43.71,43.71,0,0,1,628,97.25,61.28,61.28,0,0,1,644.47,95Q660.73,95,669.44,102.77ZM652.15,151a13.18,13.18,0,0,0,5.72-7.08v-7.15H644q-12.48,0-12.48,8.19a7.3,7.3,0,0,0,3.06,6.18c2,1.51,4.83,2.27,8.38,2.27A17.64,17.64,0,0,0,652.15,151Z"/><path class="cls-1" d="M760,102.84q8,7.8,8,23.14V166H747.72V129.11q0-8.33-3.65-12.42t-10.53-4.1q-7.66,0-12.22,4.75t-4.55,14.11V166H696.48V96.08h19.38v8.19a26.86,26.86,0,0,1,10-6.83A34.94,34.94,0,0,1,739,95Q752,95,760,102.84Z"/><rect id="Type_Boundaries" data-name="Type Boundaries" class="cls-2" x="128" y="64" width="640" height="128"/></g></g><g id="_AB_4_Project_Wingman" data-name="[AB 4] Project Wingman"><g id="Logo"><path id="Chat_Thread_Boundary" data-name="Chat Thread Boundary" class="cls-1" d="M16,112v32a24,24,0,0,0,24,24H60v-8H40a16,16,0,0,1-16-16V112A16,16,0,0,1,40,96H60V88H40A24,24,0,0,0,16,112Z"/><path id="Message_Stroke_3" data-name="Message Stroke 3" class="cls-1" d="M36,112a4,4,0,0,0,4,4H60v-8H40A4,4,0,0,0,36,112Z"/><path id="Message_Stroke_2" data-name="Message Stroke 2" class="cls-1" d="M36,144a4,4,0,0,0,4,4H60v-8H40A4,4,0,0,0,36,144Z"/><path id="Message_Stroke_1" data-name="Message Stroke 1" class="cls-1" d="M36,128a4,4,0,0,0,4,4H60v-8H40A4,4,0,0,0,36,128Z"/><path id="Wing" class="cls-1" d="M112,92h0a4.22,4.22,0,0,0-.11-.93l0,0a.83.83,0,0,0,0-.15.19.19,0,0,0,0-.07l0-.13,0-.08a.69.69,0,0,1,0-.13s0,0,0,0h0l-.12-.25v0h0l0,0a3.38,3.38,0,0,0-.3-.47v0h0a4,4,0,0,0-.43-.49h0a3.94,3.94,0,0,0-.68-.52l0,0h0l0,0-.22-.12h0l-.15-.07h0l0,0h0l-.15-.06h0l-.12,0-.26-.08h0a4,4,0,0,0-1-.12H72a4,4,0,0,0,0,8h29.53L95,109H83a3,3,0,0,0,0,6h9l-5,10H83a3,3,0,0,0,0,6h1l-4.83,9.65h0L68.42,162.21a4,4,0,0,0,1.79,5.37A4.12,4.12,0,0,0,72,168a4,4,0,0,0,3.58-2.21l3.62-7.25L93,131l3-6,5-10,3-6,7.61-15.21.12-.27v0h0v0A3.94,3.94,0,0,0,112,92Z"/></g><rect id="Boundaries" class="cls-2" y="64" width="128" height="128"/></g></svg>