<svg id="_AB_1_Project_Wingman" data-name="[AB 1] Project Wingman" xmlns="http://www.w3.org/2000/svg" viewBox="0 0 768 640"><defs><style>.cls-1,.cls-2{fill:#0050ff;}.cls-2{opacity:0;}</style></defs><title>PW-Normal</title><g id="Logo"><path id="Chat_Thread_Boundary" data-name="Chat Thread Boundary" class="cls-1" d="M0,192V448C0,554,86,640,192,640H352V576H192A128,128,0,0,1,64,448V192A128,128,0,0,1,192,64H352V0H192C86,0,0,86,0,192Z"/><path id="Message_Stroke_3" data-name="Message Stroke 3" class="cls-1" d="M160,192a32,32,0,0,0,32,32H352V160H192A32,32,0,0,0,160,192Z"/><path id="Message_Stroke_2" data-name="Message Stroke 2" class="cls-1" d="M160,448a32,32,0,0,0,32,32H352V416H192A32,32,0,0,0,160,448Z"/><path id="Message_Stroke_1" data-name="Message Stroke 1" class="cls-1" d="M160,320a32,32,0,0,0,32,32H352V288H192A32,32,0,0,0,160,320Z"/><path id="Wing" class="cls-1" d="M768,32v-.09a31.79,31.79,0,0,0-.9-7.42c0-.14-.07-.28-.1-.42-.1-.4-.21-.79-.33-1.18-.06-.21-.12-.41-.19-.62s-.21-.65-.33-1-.15-.44-.23-.65-.28-.71-.43-1.06c0-.13-.1-.27-.16-.4h0l0-.07c-.3-.67-.62-1.34-1-2,0-.06-.06-.13-.1-.19v0h0c0-.07-.08-.13-.11-.19a32.43,32.43,0,0,0-2.43-3.82l-.06-.08h0l-.06-.08a31.58,31.58,0,0,0-3.39-3.84h0a31.7,31.7,0,0,0-5.43-4.18l-.24-.16h0l-.06,0-.24-.12c-.55-.33-1.12-.65-1.71-.95l-.06,0-.13-.07-.1-.05c-.38-.19-.78-.37-1.17-.55h0l-.29-.13h0q-.59-.25-1.17-.48l-.23-.09h0l-.1,0h0c-.31-.12-.63-.22-1-.33-.7-.24-1.39-.45-2.1-.64L744,1h0L743.78,1A31.59,31.59,0,0,0,736,0H448a32,32,0,0,0,0,64H684.21l-52,104H536a24,24,0,0,0,0,48h72.21l-40,80H536a24,24,0,0,0,0,48h8.21L505.6,421.23v0L419.38,593.69a32,32,0,1,0,57.24,28.62l29-58L615.78,344l24-48,40-80,24-48L764.62,46.31c.36-.72.68-1.45,1-2.18a1.33,1.33,0,0,0,.09-.21h0a1.17,1.17,0,0,0,0-.11h0a.56.56,0,0,0,0-.12A31.8,31.8,0,0,0,768,32Z"/></g><rect id="Boundaries" class="cls-2" x="-128" y="-192" width="1024" height="1024"/></svg>